# xmcd
# 
# Track frame offsets:
#     150
#     12875
#     29770
#     42508
#     58078
#     70293
#     81780
#     94430
#     106660
#     120578
#     130710
#     142790
#     157660
#     169878
# 
# Disc length: 2416
# 
# Revision: 4
# Processed by: cddbd v1.5.2PL0 Copyright (c) Steve Scherf et al.
# Submitted via: fre:ac v1.0.31
# 
DISCID=b4096e0e
DTITLE=Columbia Blues - Jimmy Witherspoon Evenin' Blues
DYEAR=1963
DGENRE=Blues
TTITLE0=Money's Gettin' Cheaper
TTITLE1=Grab Me A Freight
TTITLE2=Don't Let go
TTITLE3=I've Been Treated Wrong
TTITLE4=Evenin'
TTITLE5=Cane River
TTITLE6=How Long Blues
TTITLE7=Good Rockin' tonight
TTITLE8=Kansas City
TTITLE9=Drinking Beer
TTITLE10=Don't Let Go #2
TTITLE11=I'e Been Treated Wrong
TTITLE12=Evenin' #2
TTITLE13=Cane River #2
EXTD=
EXTT0=
EXTT1=
EXTT2=
EXTT3=
EXTT4=
EXTT5=
EXTT6=
EXTT7=
EXTT8=
EXTT9=
EXTT10=
EXTT11=
EXTT12=
EXTT13=
PLAYORDER=
